<svg width="35" height="36" viewBox="0 0 35 36" fill="none" xmlns="http://www.w3.org/2000/svg">
<path d="M17.5 0.526855C14.0388 0.526855 10.6554 1.55321 7.77753 3.47614C4.89967 5.39906 2.65665 8.13219 1.33212 11.3299C0.0075822 14.5276 -0.338976 18.0463 0.336266 21.4409C1.01151 24.8356 2.67822 27.9538 5.12564 30.4012C7.57306 32.8486 10.6913 34.5154 14.0859 35.1906C17.4806 35.8658 20.9993 35.5193 24.197 34.1947C27.3947 32.8702 30.1278 30.6272 32.0507 27.7493C33.9736 24.8715 35 21.488 35 18.0269C34.9949 13.3871 33.1495 8.9389 29.8687 5.65811C26.588 2.37733 22.1397 0.531951 17.5 0.526855ZM17.5 34.1269C14.3157 34.1269 11.203 33.1826 8.55533 31.4135C5.90769 29.6444 3.84412 27.1299 2.62555 24.1881C1.40698 21.2462 1.08814 18.009 1.70936 14.8859C2.33059 11.7628 3.86396 8.89406 6.11559 6.64244C8.36721 4.39081 11.236 2.85743 14.3591 2.23621C17.4821 1.61499 20.7193 1.93382 23.6612 3.15239C26.6031 4.37097 29.1176 6.43454 30.8867 9.08217C32.6558 11.7298 33.6 14.8426 33.6 18.0269C33.5954 22.2954 31.8976 26.3878 28.8793 29.4062C25.861 32.4245 21.7686 34.1222 17.5 34.1269ZM25.2 18.0269C25.2 18.2125 25.1263 18.3906 24.995 18.5218C24.8637 18.6531 24.6857 18.7269 24.5 18.7269H12.1905L16.5953 23.1316C16.7266 23.2629 16.8004 23.4411 16.8004 23.6269C16.8004 23.8126 16.7266 23.9908 16.5953 24.1221C16.4639 24.2535 16.2858 24.3272 16.1 24.3272C15.9143 24.3272 15.7361 24.2535 15.6048 24.1221L10.0048 18.5221C9.93967 18.4571 9.88804 18.3799 9.85281 18.2949C9.81759 18.2099 9.79946 18.1188 9.79946 18.0269C9.79946 17.9349 9.81759 17.8438 9.85281 17.7588C9.88804 17.6738 9.93967 17.5966 10.0048 17.5316L15.6048 11.9316C15.7361 11.8003 15.9143 11.7265 16.1 11.7265C16.2858 11.7265 16.4639 11.8003 16.5953 11.9316C16.7266 12.063 16.8004 12.2411 16.8004 12.4269C16.8004 12.6126 16.7266 12.7908 16.5953 12.9221L12.1905 17.3269H24.5C24.6857 17.3269 24.8637 17.4006 24.995 17.5319C25.1263 17.6632 25.2 17.8412 25.2 18.0269Z" fill="#CDCDC6"/>
</svg>
