<svg width="21" height="16" viewBox="0 0 21 16" fill="none" xmlns="http://www.w3.org/2000/svg">
<path d="M19.7308 0.307617H1.26923C1.06522 0.307617 0.869561 0.388661 0.725302 0.53292C0.581044 0.677179 0.5 0.872835 0.5 1.07685V14.1538C0.5 14.5618 0.662087 14.9531 0.950605 15.2416C1.23912 15.5301 1.63044 15.6922 2.03846 15.6922H18.9615C19.3696 15.6922 19.7609 15.5301 20.0494 15.2416C20.3379 14.9531 20.5 14.5618 20.5 14.1538V1.07685C20.5 0.872835 20.419 0.677179 20.2747 0.53292C20.1304 0.388661 19.9348 0.307617 19.7308 0.307617ZM10.5 8.49512L3.24712 1.84608H17.7529L10.5 8.49512ZM7.68365 7.99992L2.03846 13.174V2.82589L7.68365 7.99992ZM8.82212 9.04319L9.97596 10.1057C10.1179 10.236 10.3035 10.3083 10.4962 10.3083C10.6888 10.3083 10.8744 10.236 11.0163 10.1057L12.1702 9.04319L17.7471 14.1538H3.24712L8.82212 9.04319ZM13.3163 7.99992L18.9615 2.82492V13.1749L13.3163 7.99992Z" fill="#288AE0"/>
</svg>
