<svg width="36" height="36" viewBox="0 0 36 36" fill="none" xmlns="http://www.w3.org/2000/svg">
<path d="M26.9808 9.89343H8.51923C8.31522 9.89343 8.11956 9.97448 7.9753 10.1187C7.83104 10.263 7.75 10.4587 7.75 10.6627V23.7396C7.75 24.1476 7.91209 24.5389 8.2006 24.8274C8.48912 25.116 8.88044 25.278 9.28846 25.278H26.2115C26.6196 25.278 27.0109 25.116 27.2994 24.8274C27.5879 24.5389 27.75 24.1476 27.75 23.7396V10.6627C27.75 10.4587 27.669 10.263 27.5247 10.1187C27.3804 9.97448 27.1848 9.89343 26.9808 9.89343ZM17.75 18.0809L10.4971 11.4319H25.0029L17.75 18.0809ZM14.9337 17.5857L9.28846 22.7598V12.4117L14.9337 17.5857ZM16.0721 18.629L17.226 19.6915C17.3679 19.8218 17.5535 19.8941 17.7462 19.8941C17.9388 19.8941 18.1244 19.8218 18.2663 19.6915L19.4202 18.629L24.9971 23.7396H10.4971L16.0721 18.629ZM20.5663 17.5857L26.2115 12.4107V22.7607L20.5663 17.5857Z" fill="#288AE0"/>
</svg>
