<svg width="35" height="36" viewBox="0 0 35 36" fill="none" xmlns="http://www.w3.org/2000/svg">
<path d="M17.5 0.526855C14.0388 0.526855 10.6554 1.55321 7.77753 3.47614C4.89967 5.39906 2.65665 8.13219 1.33212 11.3299C0.00758219 14.5276 -0.338976 18.0463 0.336266 21.4409C1.01151 24.8356 2.67822 27.9538 5.12564 30.4012C7.57306 32.8486 10.6913 34.5153 14.0859 35.1906C17.4806 35.8658 20.9993 35.5193 24.197 34.1947C27.3947 32.8702 30.1278 30.6272 32.0507 27.7493C33.9736 24.8715 35 21.488 35 18.0269C34.9949 13.3871 33.1495 8.9389 29.8687 5.65811C26.588 2.37733 22.1397 0.531951 17.5 0.526855ZM17.5 34.1269C14.3157 34.1269 11.203 33.1826 8.55533 31.4135C5.90769 29.6444 3.84412 27.1299 2.62555 24.1881C1.40698 21.2462 1.08814 18.009 1.70936 14.8859C2.33059 11.7628 3.86396 8.89406 6.11559 6.64244C8.36721 4.39081 11.236 2.85743 14.3591 2.23621C17.4821 1.61499 20.7193 1.93382 23.6612 3.15239C26.6031 4.37096 29.1176 6.43454 30.8867 9.08217C32.6558 11.7298 33.6 14.8426 33.6 18.0269C33.5954 22.2954 31.8976 26.3878 28.8793 29.4062C25.861 32.4245 21.7686 34.1222 17.5 34.1269ZM24.9953 17.5316C25.0603 17.5966 25.112 17.6738 25.1472 17.7588C25.1824 17.8438 25.2006 17.9349 25.2006 18.0269C25.2006 18.1188 25.1824 18.2099 25.1472 18.2949C25.112 18.3799 25.0603 18.4571 24.9953 18.5221L19.3953 24.1221C19.2639 24.2534 19.0858 24.3272 18.9 24.3272C18.7143 24.3272 18.5361 24.2534 18.4048 24.1221C18.2734 23.9908 18.1996 23.8126 18.1996 23.6269C18.1996 23.4411 18.2734 23.2629 18.4048 23.1316L22.8095 18.7269H10.5C10.3144 18.7269 10.1363 18.6531 10.005 18.5218C9.87376 18.3906 9.80001 18.2125 9.80001 18.0269C9.80001 17.8412 9.87376 17.6632 10.005 17.5319C10.1363 17.4006 10.3144 17.3269 10.5 17.3269H22.8095L18.4048 12.9221C18.2734 12.7908 18.1996 12.6126 18.1996 12.4269C18.1996 12.2411 18.2734 12.063 18.4048 11.9316C18.5361 11.8003 18.7143 11.7265 18.9 11.7265C19.0858 11.7265 19.2639 11.8003 19.3953 11.9316L24.9953 17.5316Z" fill="#CDCDC6"/>
</svg>
