<svg width="19" height="18" viewBox="0 0 19 18" fill="none" xmlns="http://www.w3.org/2000/svg">
<path d="M18.3013 1.11978C18.2224 1.0516 18.1263 1.00627 18.0235 0.988674C17.9207 0.971082 17.8151 0.981899 17.7179 1.01996L1.13604 7.5092C0.934355 7.58812 0.763715 7.73034 0.649749 7.91451C0.535783 8.09868 0.484643 8.31485 0.50401 8.53056C0.523377 8.74627 0.612205 8.94988 0.757154 9.1108C0.902103 9.27172 1.09535 9.38127 1.30787 9.423L5.73603 10.2928V15.2176C5.73613 15.4459 5.80444 15.669 5.93222 15.8582C6.05999 16.0474 6.24139 16.1941 6.45314 16.2795C6.66489 16.3649 6.89732 16.385 7.12061 16.3374C7.34389 16.2897 7.54785 16.1765 7.70629 16.0121L9.88601 13.7513L13.2881 16.7337C13.4958 16.9175 13.7635 17.0191 14.0409 17.0193C14.162 17.019 14.2823 17 14.3976 16.9628C14.5866 16.903 14.7567 16.7947 14.8907 16.6487C15.0248 16.5027 15.1183 16.3241 15.1618 16.1307L18.4854 1.68189C18.5088 1.58031 18.504 1.47429 18.4716 1.37523C18.4391 1.27618 18.3803 1.18786 18.3013 1.11978ZM1.48542 8.45669C1.48229 8.44825 1.48229 8.43896 1.48542 8.43051C1.48912 8.42766 1.49326 8.42544 1.49769 8.42396L14.5654 3.3085L6.11323 9.36327L1.49769 8.45997L1.48542 8.45669ZM6.99935 15.3297C6.9768 15.3531 6.94779 15.3692 6.91603 15.3761C6.88426 15.3829 6.85117 15.3802 6.82098 15.3682C6.79079 15.3561 6.76486 15.3354 6.7465 15.3086C6.72814 15.2818 6.71818 15.2501 6.71789 15.2176V10.9719L9.14716 13.0992L6.99935 15.3297ZM14.2054 15.909C14.1993 15.9366 14.186 15.9622 14.1667 15.9829C14.1474 16.0036 14.1229 16.0188 14.0957 16.0268C14.068 16.0365 14.0382 16.0386 14.0094 16.0329C13.9806 16.0271 13.9539 16.0137 13.9321 15.9941L7.01572 9.92702L17.2728 2.5762L14.2054 15.909Z" fill="#288AE0"/>
</svg>
