<svg width="19" height="17" viewBox="0 0 19 17" fill="none" xmlns="http://www.w3.org/2000/svg">
<path d="M18.5513 0.705596C18.4724 0.637414 18.3763 0.592081 18.2735 0.574489C18.1707 0.556897 18.0651 0.567715 17.9679 0.605774L1.38604 7.09502C1.18436 7.17394 1.01372 7.31616 0.899749 7.50033C0.785783 7.68449 0.734643 7.90067 0.75401 8.11638C0.773377 8.33209 0.862205 8.53569 1.00715 8.69661C1.1521 8.85754 1.34535 8.96709 1.55787 9.00882L5.98603 9.87858V14.8034C5.98613 15.0317 6.05444 15.2548 6.18222 15.444C6.30999 15.6332 6.49139 15.7799 6.70314 15.8653C6.91489 15.9507 7.14732 15.9709 7.37061 15.9232C7.59389 15.8756 7.79785 15.7623 7.95629 15.5979L10.136 13.3372L13.5381 16.3195C13.7458 16.5033 14.0135 16.6049 14.2909 16.6051C14.412 16.6048 14.5323 16.5858 14.6476 16.5486C14.8366 16.4888 15.0067 16.3805 15.1407 16.2345C15.2748 16.0885 15.3683 15.9099 15.4118 15.7165L18.7354 1.26771C18.7588 1.16613 18.754 1.0601 18.7216 0.961048C18.6891 0.861994 18.6303 0.773671 18.5513 0.705596ZM1.73542 8.04251C1.73229 8.03406 1.73229 8.02477 1.73542 8.01633C1.73912 8.01347 1.74326 8.01126 1.74769 8.00978L14.8154 2.89431L6.36323 8.94909L1.74769 8.04578L1.73542 8.04251ZM7.24935 14.9155C7.2268 14.9389 7.19779 14.955 7.16603 14.9619C7.13426 14.9688 7.10117 14.966 7.07098 14.954C7.04079 14.9419 7.01486 14.9212 6.9965 14.8944C6.97814 14.8676 6.96818 14.8359 6.96789 14.8034V10.5577L9.39716 12.685L7.24935 14.9155ZM14.4554 15.4948C14.4493 15.5225 14.436 15.548 14.4167 15.5687C14.3974 15.5894 14.3729 15.6046 14.3457 15.6126C14.318 15.6223 14.2882 15.6244 14.2594 15.6187C14.2306 15.6129 14.2039 15.5995 14.1821 15.5799L7.26572 9.51284L17.5228 2.16201L14.4554 15.4948Z" fill="#288AE0"/>
</svg>
