<svg width="18" height="18" viewBox="0 0 18 18" fill="none" xmlns="http://www.w3.org/2000/svg">
<path d="M13.643 10.1384L10.9761 8.8049C10.8973 8.76573 10.8096 8.74802 10.7218 8.75359C10.634 8.75915 10.5492 8.78777 10.476 8.83657L9.16924 9.70748C8.50768 9.36881 7.96944 8.83057 7.63077 8.16901L8.50251 6.86306C8.55131 6.78986 8.57994 6.70509 8.5855 6.61729C8.59106 6.52949 8.57336 6.44179 8.53418 6.36302L7.20073 3.69611C7.15927 3.61268 7.09532 3.54248 7.0161 3.49345C6.93688 3.44441 6.84553 3.41848 6.75236 3.41859C5.91243 3.41859 5.10691 3.75225 4.51299 4.34617C3.91907 4.94008 3.58541 5.74561 3.58541 6.58554C3.58762 8.48575 4.34345 10.3075 5.6871 11.6511C7.03075 12.9948 8.8525 13.7506 10.7527 13.7528C11.5926 13.7528 12.3982 13.4192 12.9921 12.8253C13.586 12.2313 13.9197 11.4258 13.9197 10.5859C13.9197 10.4929 13.8938 10.4018 13.8449 10.3228C13.7961 10.2437 13.7261 10.1799 13.643 10.1384ZM10.7527 12.7527C9.11768 12.7508 7.55017 12.1004 6.39403 10.9442C5.23788 9.78807 4.58749 8.22057 4.5855 6.58554C4.58555 6.06257 4.77473 5.55726 5.11814 5.16285C5.46155 4.76843 5.93601 4.51152 6.454 4.43951L7.50909 6.5497L6.64318 7.84815C6.59769 7.91663 6.56978 7.99527 6.56193 8.07712C6.55408 8.15896 6.56653 8.24147 6.59818 8.31736C7.05799 9.41058 7.92767 10.2803 9.02089 10.7401C9.09678 10.7717 9.17929 10.7842 9.26113 10.7763C9.34298 10.7685 9.42162 10.7406 9.4901 10.6951L10.7885 9.82916L12.8987 10.8842C12.8267 11.4022 12.5698 11.8767 12.1754 12.2201C11.781 12.5635 11.2757 12.7527 10.7527 12.7527ZM8.75254 0.0849611C7.2789 0.0846518 5.83049 0.467434 4.54941 1.19576C3.26833 1.92408 2.19858 2.97292 1.44513 4.23938C0.691672 5.50584 0.280386 6.94641 0.25162 8.41977C0.222854 9.89313 0.577596 11.3487 1.28104 12.6436L0.312624 15.5497C0.244065 15.7552 0.234115 15.9759 0.28389 16.1868C0.333666 16.3977 0.441198 16.5906 0.594436 16.7438C0.747674 16.8971 0.940561 17.0046 1.15148 17.0544C1.3624 17.1041 1.58301 17.0942 1.78859 17.0256L4.69468 16.0572C5.83226 16.6745 7.0958 17.024 8.38893 17.0788C9.68207 17.1337 10.9707 16.8925 12.1564 16.3738C13.3422 15.855 14.3939 15.0723 15.2313 14.0854C16.0686 13.0984 16.6696 11.9333 16.9883 10.6789C17.307 9.42444 17.335 8.11378 17.0703 6.84685C16.8055 5.57992 16.2549 4.39018 15.4606 3.36833C14.6662 2.34649 13.649 1.51953 12.4864 0.950519C11.3239 0.381505 10.0468 0.0854617 8.75254 0.0849611ZM8.75254 16.0864C7.43403 16.0867 6.13874 15.7394 4.9972 15.0796C4.9211 15.0359 4.83496 15.0126 4.74718 15.0121C4.69338 15.0124 4.63995 15.0211 4.58884 15.0379L1.47273 16.0764C1.44336 16.0862 1.41184 16.0876 1.38171 16.0805C1.35158 16.0734 1.32402 16.058 1.30213 16.0361C1.28024 16.0142 1.26488 15.9867 1.25777 15.9565C1.25066 15.9264 1.25208 15.8949 1.26187 15.8655L2.3003 12.7527C2.32277 12.6855 2.33067 12.6142 2.32349 12.5437C2.3163 12.4731 2.29419 12.4049 2.25863 12.3435C1.43127 10.9143 1.09871 9.25202 1.31254 7.6145C1.52637 5.97699 2.27464 4.45581 3.44126 3.28698C4.60788 2.11814 6.12763 1.36699 7.76474 1.15005C9.40184 0.933112 11.0648 1.26252 12.4956 2.08716C13.9263 2.91181 15.045 4.1856 15.6779 5.7109C16.3109 7.23621 16.4227 8.92776 15.9962 10.5231C15.5696 12.1185 14.6285 13.5285 13.3188 14.5344C12.009 15.5403 10.404 16.0858 8.75254 16.0864Z" fill="#288AE0"/>
</svg>
