<svg width="14" height="15" viewBox="0 0 14 15" fill="none" xmlns="http://www.w3.org/2000/svg">
<path d="M13.8896 13.808L10.3661 10.2845C11.3708 9.12905 11.8877 7.62857 11.8078 6.0994C11.7278 4.57024 11.0572 3.13185 9.93744 2.08745C8.81763 1.04305 7.33606 0.474232 5.80504 0.500897C4.27401 0.527562 2.81315 1.14763 1.73039 2.23039C0.647628 3.31315 0.0275619 4.77401 0.000896871 6.30504C-0.0257682 7.83606 0.543051 9.31763 1.58745 10.4374C2.63185 11.5572 4.07024 12.2278 5.5994 12.3078C7.12857 12.3877 8.62905 11.8708 9.78454 10.8661L13.308 14.3896C13.386 14.4622 13.4892 14.5018 13.5958 14.4999C13.7024 14.4981 13.8041 14.4549 13.8795 14.3795C13.9549 14.3041 13.9981 14.2024 13.9999 14.0958C14.0018 13.9892 13.9622 13.886 13.8896 13.808ZM0.843466 6.41817C0.843466 5.41449 1.14109 4.43335 1.69871 3.59881C2.25632 2.76428 3.04888 2.11385 3.97616 1.72975C4.90344 1.34566 5.9238 1.24517 6.90819 1.44097C7.89259 1.63678 8.79682 2.1201 9.50653 2.82981C10.2162 3.53952 10.6996 4.44375 10.8954 5.42814C11.0912 6.41254 10.9907 7.43289 10.6066 8.36017C10.2225 9.28745 9.57205 10.08 8.73752 10.6376C7.90299 11.1952 6.92185 11.4929 5.91817 11.4929C4.57278 11.4912 3.28295 10.9561 2.33162 10.0047C1.38028 9.05338 0.845099 7.76356 0.843466 6.41817Z" fill="#343330"/>
</svg>
